<?xml version="1.0" encoding="utf-8"?>
<!-- Generator: Adobe Illustrator 28.3.0, SVG Export Plug-In . SVG Version: 6.00 Build 0)  -->
<svg version="1.1" id="contents" xmlns="http://www.w3.org/2000/svg" xmlns:xlink="http://www.w3.org/1999/xlink" x="0px" y="0px"
	 viewBox="0 0 800 800" style="enable-background:new 0 0 800 800;" xml:space="preserve">
<style type="text/css">
	.st0{fill:#362248;}
</style>
<path class="st0" d="M601.5,198.5C547.7,144.6,476.1,115,400,115s-147.7,29.6-201.5,83.5S115,323.9,115,400s29.6,147.7,83.5,201.5
	C252.3,655.4,323.9,685,400,685s147.7-29.6,201.5-83.5C655.4,547.7,685,476.1,685,400S655.4,252.3,601.5,198.5z M516.4,297.4
	L412.6,564.5c-1.9,4.8-6.6,7.8-11.7,7.4c-2.9-0.2-5.5-1.4-7.5-3.4c-1.5-1.5-2.6-3.4-3.1-5.6l-29.9-124.8l-124.8-29.9
	c-2.2-0.5-4.1-1.6-5.6-3.1c-2-2-3.2-4.6-3.4-7.5c-0.3-5.1,2.7-9.9,7.4-11.7l267.1-103.8c4.3-1.7,9.2-0.6,12.5,2.6
	C517,288.1,518.1,293,516.4,297.4z"/>
</svg>
