<?xml version="1.0" encoding="UTF-8"?><svg id="_レイヤー_1" xmlns="http://www.w3.org/2000/svg" viewBox="0 0 38.23 46.4"><defs><style>.cls-1{fill:#231815;stroke-width:0px;}</style></defs><path class="cls-1" d="M.06.7C-.73-.87,7.06.7,7.06.7l8.76,24.42c1.1,3.12,2.15,6.34,3.25,9.52h.28c1.1-3.17,2.06-6.4,3.16-9.52L31.16.7s7.83-1.54,7,0c-4.82,9.05,0,45.7,0,45.7h-5.41v-25.16c0-3.98.44-9.48.74-13.51h-.28l-3.63,10.42-8.61,23.64h-3.85l-8.65-23.64-3.62-10.42h-.28c.29,4.04.74,9.53.74,13.51v25.16H.06S4.75,10.03.06.7Z"/></svg>