<?xml version="1.0" encoding="utf-8"?>
<!-- Generator: Adobe Illustrator 28.3.0, SVG Export Plug-In . SVG Version: 6.00 Build 0)  -->
<svg version="1.1" id="_x32_" xmlns="http://www.w3.org/2000/svg" xmlns:xlink="http://www.w3.org/1999/xlink" x="0px" y="0px"
	 viewBox="0 0 512 512" style="enable-background:new 0 0 512 512;" xml:space="preserve">
<style type="text/css">
	.st0{fill:#FFFFFF;}
</style>
<g>
	<path class="st0" d="M426.1,0c-9.3,0-17.5,6.3-19.8,15.4L386,93.9H28.8c-6.4,0-12.5,3-16.4,8.2c-3.9,5.1-5.1,11.8-3.3,18
		l58.8,204.1C70.4,333,78.5,339,87.6,339h235.1l-8.9,34.3H89.4v36.1H326c9.3,0,17.5-6.3,19.8-15.4l92.4-358h65.5V0H426.1z
		 M349.9,233.7l-17.9,69.2h-45.1v-69.3L349.9,233.7L349.9,233.7z M376.7,130.1l-17.4,67.5h-72.3v-67.5H376.7z M250.8,233.7v69.2
		h-77.1v-69.3L250.8,233.7L250.8,233.7z M250.8,130.1v67.5h-77.1v-67.5H250.8z M143.4,130.1v67.5H69l-19.4-67.5H143.4z M143.4,233.7
		v69.2h-44l-20-69.3L143.4,233.7L143.4,233.7z"/>
	<path class="st0" d="M123.9,436.7c-20.2,0-36.6,16.4-36.6,36.6c0,20.2,16.4,36.6,36.6,36.6c20.2,0,36.6-16.4,36.6-36.6
		C160.5,453.1,144.1,436.7,123.9,436.7z"/>
	<path class="st0" d="M299.7,438.7c-20.2,0-36.6,16.4-36.6,36.6c0,20.2,16.4,36.6,36.6,36.6c20.2,0,36.6-16.4,36.6-36.6
		C336.3,455.1,319.9,438.7,299.7,438.7z"/>
</g>
</svg>
