<?xml version="1.0" encoding="UTF-8"?><svg id="_2" xmlns="http://www.w3.org/2000/svg" viewBox="0 0 495.42 511.9"><defs><style>.cls-1{fill:#362248;stroke-width:0px;}</style></defs><path class="cls-1" d="M417.82,0c-9.3,0-17.5,6.3-19.8,15.4l-20.3,78.5H20.52c-6.4,0-12.5,3-16.4,8.2-3.9,5.1-5.1,11.8-3.3,18l58.8,204.1c2.5,8.8,10.6,14.8,19.7,14.8h235.1l-8.9,34.3H81.12v36.1h236.6c9.3,0,17.5-6.3,19.8-15.4L429.92,36h65.5V0h-77.6ZM341.62,233.7l-17.9,69.2h-45.1v-69.3l63,.1h0ZM368.42,130.1l-17.4,67.5h-72.3v-67.5h89.7ZM242.52,233.7v69.2h-77.1v-69.3l77.1.1h0ZM242.52,130.1v67.5h-77.1v-67.5h77.1ZM135.12,130.1v67.5H60.72l-19.4-67.5h93.8ZM135.12,233.7v69.2h-44l-20-69.3,64,.1h0Z"/><path class="cls-1" d="M115.62,436.7c-20.2,0-36.6,16.4-36.6,36.6s16.4,36.6,36.6,36.6,36.6-16.4,36.6-36.6-16.4-36.6-36.6-36.6Z"/><path class="cls-1" d="M291.42,438.7c-20.2,0-36.6,16.4-36.6,36.6s16.4,36.6,36.6,36.6,36.6-16.4,36.6-36.6c0-20.2-16.4-36.6-36.6-36.6Z"/></svg>