<?xml version="1.0" encoding="UTF-8"?><svg id="_レイヤー_1" xmlns="http://www.w3.org/2000/svg" viewBox="0 0 520.86 142.57"><defs><style>.cls-1{fill:#fff;stroke-width:0px;}</style></defs><path class="cls-1" d="M.14,27.15c-1.95-3.88,17.37,0,17.37,0l21.72,60.56c2.73,7.73,5.32,15.73,8.05,23.61h.7c2.72-7.87,5.1-15.88,7.83-23.61l21.47-60.56s19.41-3.83,17.37,0c-11.94,22.45,0,113.33,0,113.33h-13.41v-62.4c0-9.87,1.1-23.5,1.84-33.51h-.7l-8.99,25.84-21.35,58.62h-9.55l-21.46-58.62-8.98-25.84h-.69c.72,10.01,1.84,23.64,1.84,33.51v62.4H.14S11.79,50.3.14,27.15Z"/><path class="cls-1" d="M125.29,93.69c1.55-16.56,7.27-52.14,0-66.54-1.62-3.22,14.42,0,14.42,0v66.93c0,27.24,11.5,43.51,26.29,43.51s26.89-16.27,26.89-43.51V27.15s15.22-3.16,13.82,0c-6.7,15.11,0,66.54,0,66.54,3.04,36.61-17.56,48.88-40.69,48.88s-44.1-12.9-40.74-48.88h.01Z"/><path class="cls-1" d="M313.99,26.11c-1.95-3.88,17.37,0,17.37,0l21.72,60.56c2.73,7.73,5.32,15.73,8.05,23.61h.7c2.72-7.87,5.1-15.88,7.83-23.61l21.47-60.56s19.41-3.83,17.37,0c-11.94,22.45,0,113.33,0,113.33h-13.41v-62.4c0-9.87,1.1-23.5,1.84-33.51h-.7l-8.99,25.84-21.35,58.62h-9.55l-21.46-58.62-8.98-25.84h-.69c.72,10.01,1.84,23.64,1.84,33.51v62.4h-13.06s11.65-90.19,0-113.33h0Z"/><path class="cls-1" d="M439.14,92.65c1.55-16.56,7.27-52.14,0-66.54-1.62-3.22,14.42,0,14.42,0v66.93c0,27.24,11.5,43.51,26.29,43.51s26.89-16.27,26.89-43.51V26.11s15.22-3.16,13.82,0c-6.7,15.11,0,66.54,0,66.54,3.04,36.61-17.56,48.88-40.69,48.88s-44.1-12.9-40.74-48.88h0Z"/><path class="cls-1" d="M246.06,79.24l13.88,1.4c.33.03.66.03.99,0l13.88-1.4c2.9-.29,5.42,1.98,5.42,4.9h0c0,2.92-2.52,5.19-5.42,4.9l-13.88-1.4c-.33-.03-.66-.03-.99,0l-13.88,1.4c-2.9.29-5.42-1.98-5.42-4.9h0c0-2.92,2.52-5.19,5.42-4.9Z"/><circle class="cls-1" cx="149.11" cy="4.25" r="4.25"/><circle class="cls-1" cx="187.11" cy="4.25" r="4.25"/></svg>